<?xml version="1.0" standalone="no"?>
<!DOCTYPE svg PUBLIC "-//W3C//DTD SVG 20010904//EN"
 "http://www.w3.org/TR/2001/REC-SVG-20010904/DTD/svg10.dtd">
<svg version="1.0" xmlns="http://www.w3.org/2000/svg"
 width="160.000000pt" height="160.000000pt" viewBox="0 0 160.000000 160.000000"
 preserveAspectRatio="xMidYMid meet">

<g transform="translate(0.000000,160.000000) scale(0.100000,-0.100000)"
fill="#000000" stroke="none">
<path d="M1360 1511 c0 -5 -8 -11 -17 -13 -15 -3 -14 -5 5 -10 15 -4 22 -2 22
7 0 8 8 16 18 18 13 4 11 5 -5 6 -13 0 -23 -3 -23 -8z"/>
<path d="M1017 1503 c-4 -3 -2 -12 4 -20 17 -20 -8 -46 -38 -38 -13 3 -23 1
-23 -6 0 -7 -27 -8 -90 -3 -65 5 -90 3 -90 -5 0 -19 -63 -51 -102 -51 -21 0
-38 4 -38 9 0 5 -20 11 -44 12 -32 3 -42 1 -39 -8 3 -8 22 -13 44 -13 41 0 56
-24 22 -33 -14 -4 -12 -5 5 -6 12 0 22 4 22 9 0 18 58 11 63 -7 4 -16 5 -16 6
0 0 10 7 17 14 14 6 -2 11 -14 9 -26 -1 -15 2 -21 10 -18 7 2 12 14 10 26 -3
18 1 22 15 19 10 -2 18 -10 17 -18 -1 -17 61 -26 71 -10 3 6 19 10 36 10 16 0
29 5 29 10 0 15 26 12 40 -5 7 -8 20 -15 30 -15 10 0 23 -6 30 -14 9 -12 17
-13 36 -4 20 9 27 9 33 -1 5 -8 17 -11 30 -6 18 5 21 2 21 -21 0 -22 2 -24 15
-14 8 6 18 9 24 6 5 -3 12 0 14 6 3 8 6 6 6 -4 1 -29 27 -20 29 10 1 15 11 54
21 87 16 51 19 55 20 28 1 -17 -3 -42 -8 -55 -4 -13 -11 -36 -15 -52 -6 -25
-5 -28 13 -23 12 3 23 1 26 -3 3 -5 32 -9 65 -9 46 0 62 4 69 17 6 10 11 12
11 5 0 -16 36 -17 45 -3 4 6 16 10 28 9 12 -2 37 1 55 6 l32 8 0 77 0 78 -146
0 c-106 0 -149 4 -155 13 -14 23 -105 27 -149 8 -32 -14 -45 -15 -74 -7 -20 6
-36 17 -36 25 0 14 -12 17 -23 6z m496 -110 c-7 -2 -21 -2 -30 0 -10 3 -4 5
12 5 17 0 24 -2 18 -5z m-396 -49 c-3 -3 -12 -4 -19 -1 -8 3 -5 6 6 6 11 1 17
-2 13 -5z"/>
<path d="M1440 1490 c0 -5 7 -10 16 -10 8 0 12 5 9 10 -3 6 -10 10 -16 10 -5
0 -9 -4 -9 -10z"/>
<path d="M1578 1473 c7 -3 16 -2 19 1 4 3 -2 6 -13 5 -11 0 -14 -3 -6 -6z"/>
<path d="M446 1434 c-3 -9 -6 -18 -6 -20 0 -8 29 -4 57 7 l28 12 -25 7 c-39
12 -47 11 -54 -6z"/>
<path d="M300 1390 c0 -5 5 -10 11 -10 5 0 7 5 4 10 -3 6 -8 10 -11 10 -2 0
-4 -4 -4 -10z"/>
<path d="M340 1389 c0 -5 5 -7 10 -4 6 3 10 8 10 11 0 2 -4 4 -10 4 -5 0 -10
-5 -10 -11z"/>
<path d="M389 1349 c19 -21 22 -21 45 -6 14 9 31 14 39 11 8 -3 18 -1 22 5 4
7 -16 11 -60 11 l-66 0 20 -21z"/>
<path d="M485 1330 c-3 -5 -1 -10 4 -10 6 0 11 5 11 10 0 6 -2 10 -4 10 -3 0
-8 -4 -11 -10z"/>
<path d="M945 1330 c3 -5 8 -10 11 -10 2 0 4 5 4 10 0 6 -5 10 -11 10 -5 0 -7
-4 -4 -10z"/>
<path d="M1175 1183 c-27 -8 -77 -24 -110 -35 -33 -11 -72 -22 -87 -25 -15 -3
-30 -13 -33 -22 -3 -9 -20 -26 -37 -38 -18 -13 -26 -23 -19 -23 11 0 11 -4 -2
-18 -19 -21 -12 -62 10 -62 8 0 11 -5 8 -10 -4 -6 -1 -18 6 -26 11 -13 9 -19
-11 -35 -14 -10 -33 -16 -42 -13 -9 3 -33 -2 -52 -10 -20 -8 -40 -14 -44 -13
-10 2 -53 -83 -47 -93 3 -4 -7 -11 -23 -16 -26 -8 -37 -9 -75 -13 -15 -1 -16
-4 -6 -23 10 -19 8 -24 -12 -40 -13 -10 -29 -22 -35 -27 -6 -5 -30 -5 -52 -1
-50 9 -56 -7 -16 -39 29 -23 59 -27 69 -11 5 8 11 7 21 -1 18 -14 18 -39 1
-39 -24 0 -37 -21 -26 -42 9 -16 7 -23 -10 -35 -12 -8 -21 -22 -21 -32 0 -26
-34 -53 -69 -55 -16 -1 -33 -5 -37 -9 -4 -4 -32 -7 -63 -7 -31 0 -73 -5 -94
-11 -34 -9 -37 -12 -25 -26 20 -24 72 -43 118 -43 27 0 53 -8 73 -23 18 -12
41 -27 52 -33 11 -6 20 -17 20 -25 0 -8 8 -21 19 -29 16 -14 17 -17 2 -29 -9
-7 -16 -19 -16 -25 0 -13 46 -36 73 -36 10 0 15 -4 12 -10 -3 -5 3 -10 15 -10
34 0 21 -34 -15 -40 -29 -6 -30 -6 -8 -18 29 -16 43 -15 43 4 0 14 2 14 16 -1
22 -22 32 -10 11 13 -25 27 -21 32 23 32 22 0 40 -4 40 -9 0 -5 10 -12 23 -16
19 -6 19 -8 5 -12 -10 -2 -18 -9 -18 -14 0 -5 175 -9 435 -9 l435 0 0 575 c0
504 -2 575 -15 575 -8 0 -15 -4 -15 -9 0 -19 -41 -22 -76 -5 -21 10 -53 17
-72 16 -18 -2 -57 6 -85 16 -78 29 -107 31 -162 15z m300 -373 c17 -4 22 -8
13 -9 -10 0 -18 -6 -18 -11 0 -6 -8 -13 -17 -17 -10 -3 -29 -16 -43 -29 -24
-21 -31 -22 -132 -17 -60 3 -108 10 -108 14 0 5 15 9 33 10 17 1 43 5 57 9 22
7 22 8 5 10 -11 2 14 8 55 15 41 7 64 14 50 15 -24 2 -24 3 5 10 17 4 39 8 50
8 11 0 34 -4 50 -8z m-275 -30 c0 -5 -7 -10 -15 -10 -8 0 -15 5 -15 10 0 6 7
10 15 10 8 0 15 -4 15 -10z"/>
<path d="M155 1088 c-73 -25 -101 -52 -73 -69 17 -11 -10 -59 -33 -59 -10 0
-23 -10 -30 -21 -9 -19 -7 -25 16 -45 37 -32 85 -44 170 -44 80 0 190 30 211
57 15 21 19 93 4 93 -5 0 -10 8 -10 19 0 19 -20 41 -42 45 -7 2 -20 6 -28 9
-67 27 -134 32 -185 15z m-15 -112 c0 -8 -4 -17 -9 -21 -12 -7 -24 12 -16 25
9 15 25 12 25 -4z"/>
<path d="M510 60 c0 -5 5 -10 11 -10 5 0 7 5 4 10 -3 6 -8 10 -11 10 -2 0 -4
-4 -4 -10z"/>
</g>
</svg>
